<?xml version="1.0" encoding="UTF-8"?>
<svg id="Layer_1" data-name="Layer 1" xmlns="http://www.w3.org/2000/svg" viewBox="0 0 472.43 149.19"><defs><style>.cls-1{fill:#004259;}</style></defs><path class="cls-1" d="M2.94,9.27a4,4,0,0,1,4-4H55.77c25.35,0,44.95,17.05,44.95,39.42,0,16.4-13.42,29.18-23.43,33.87C88.58,82.13,105,93.64,105,113.24c0,23.86-20.45,41.11-46.44,41.11H7a4,4,0,0,1-4-4ZM53.22,67.86c10.86,0,18.32-8.52,18.32-19.18S64.08,30.57,53.22,30.57H30.42V67.86Zm3,61.35a19,19,0,0,0,19.17-19.38c0-10.65-10.65-18.54-21.73-18.54H30.42v37.92Z" transform="translate(-2.94 -5.2)"/><path class="cls-1" d="M407.34,149.27,447.61,8.21a4.38,4.38,0,0,1,3.84-3h19.71c3,0,4.85,2.13,4,5.12L434.72,151.4a4.38,4.38,0,0,1-3.84,3H411.17c-3,0-4.69-2.13-3.83-5.12" transform="translate(-2.94 -5.2)"/><path class="cls-1" d="M221.25,132.87v17.47a4,4,0,0,1-4.05,4H130.5a4.05,4.05,0,0,1-4.06-4V95.58a4.18,4.18,0,0,1,4-4h19.69a4.18,4.18,0,0,1,4,4v33.25h63A4,4,0,0,1,221.25,132.87Z" transform="translate(-2.94 -5.2)"/><path class="cls-1" d="M221.25,9.31V26.78a4,4,0,0,1-4.05,4h-63V61.77a4.18,4.18,0,0,1-4,4H130.46a4.18,4.18,0,0,1-4-4V9.31a4.05,4.05,0,0,1,4.06-4.05h86.7A4,4,0,0,1,221.25,9.31Z" transform="translate(-2.94 -5.2)"/><path class="cls-1" d="M171.29,69.63a4.19,4.19,0,0,1,4.05-4h25.81a4.19,4.19,0,0,1,4,4V87.16a4.19,4.19,0,0,1-4,4H175.34a4.19,4.19,0,0,1-4.05-4Z" transform="translate(-2.94 -5.2)"/><path class="cls-1" d="M325.07,57.72l-38.14,94.41a3.67,3.67,0,0,1-3.62,2.26H279.9a4.09,4.09,0,0,1-3.83-3L235.8,10.34c-.85-3,.85-5.12,3.84-5.12h19.6a4.36,4.36,0,0,1,3.83,3l21.73,83h.85L319.74,7.54a3.44,3.44,0,0,1,3.62-2.34h4A3.45,3.45,0,0,1,331,7.54L365.11,91.2H366l21.74-83a4.36,4.36,0,0,1,3.83-3h19.6c3,0,4.69,2.13,3.83,5.12L374.7,151.4a4.1,4.1,0,0,1-3.84,3h-3.4a3.69,3.69,0,0,1-3.63-2.26L325.7,57.72Z" transform="translate(-2.94 -5.2)"/></svg>