<?xml version="1.0" encoding="utf-8"?>
<!-- Generator: Adobe Illustrator 19.1.1, SVG Export Plug-In . SVG Version: 6.00 Build 0)  -->
<svg version="1.1" id="Layer_1" xmlns="http://www.w3.org/2000/svg" xmlns:xlink="http://www.w3.org/1999/xlink" viewBox="0 0 274.2 107.9" enable-background="new 0 0 274.2 107.9" xml:space="preserve" preserveAspectRatio="xMinYMid">
<g>
	<path fill="#849938" d="M15.6,67.8h11.9L30.3,53h11l-7.7,40.5H22.6l3.1-16H13.8l-3.1,16H0l6.1-32.2c-1.4-0.2-3.3-0.5-5-0.6l1.3-7.1
		c5-0.5,10.3-0.7,16-0.5L15.6,67.8z"/>
	<path fill="#849938" d="M67,93.5c0,0-1.7,0.1-6.6,0.1c-1.3,0-2.5,0-3.8-0.1c0.5-2,0.9-3.7,1.7-5.7h-0.1c-2.8,4.2-6.4,6.4-10.5,6.4
		c-4.9,0-7.5-3.2-7.5-9.7C40.3,73,46.9,63,60,63c3.9,0,8.2,0.2,12.4,1C68.6,83.2,67,93.5,67,93.5z M58.1,71.6
		c-4.1,0-6.7,6.4-6.7,10.9c0,1.6,0.2,2.3,1.1,2.3c2.3,0,6.4-6.7,7.4-11.7l0.2-1.3C59.5,71.7,58.9,71.6,58.1,71.6z"/>
	<path fill="#849938" d="M102.2,93.5H91.4l3.5-18.2c0.4-2.2,0.2-2.9-0.6-2.9c-1.9,0-6.2,6-7.4,12.2l-1.7,8.9H74.5l4.1-21.5v-0.1
		c-1.4-0.2-3.4-0.5-5-0.6l1.3-7.1c5-0.5,10.4-0.7,15.4-0.5c-0.3,1.5-0.8,3.5-1.8,5.7h0.1c2.6-3.8,5.9-6.4,10.8-6.4
		c6.1,0,7.7,4.4,6.7,9.7L102.2,93.5z"/>
	<path fill="#849938" d="M132.8,77.8l6.5,15.8h-12.9l-3.9-13.8l-2.6,13.8h-10.7l6.7-35.4l0.1-0.2c-1.4-0.2-3.3-0.5-5-0.6l1.3-7.1
		c5-0.5,10.3-0.7,16-0.5l-4.9,25.5l11.5-13.6l8.8,5.2L132.8,77.8z"/>
	<path fill="#849938" d="M166,77.8l6.5,15.8h-12.9l-3.9-13.8L153,93.5h-10.7l6.7-35.4L149,58c-1.4-0.2-3.3-0.5-5-0.6l1.3-7.1
		c5-0.5,10.3-0.7,16-0.5l-4.9,25.5l11.5-13.6l8.8,5.2L166,77.8z"/>
	<path fill="#849938" d="M189.3,93.5h-10.7l4.1-21.5v-0.1c-1.4-0.2-3.3-0.5-5-0.6l1.3-7.1c5-0.5,10.3-0.7,16-0.5L189.3,93.5z
		 M190.8,61.4c-3.7,0-6.1-2.8-6.1-5.9c0-3.9,3.4-6.7,7-6.7c3.6,0,6.1,2.8,6.1,5.8C197.8,58.6,194.4,61.4,190.8,61.4z"/>
	<path fill="#849938" d="M208.3,94.3c-1.6,8.1-6.1,13.7-15.8,13.7c-1.4,0-3-0.2-4.3-0.6l2.3-9.2c1,0.4,2.1,0.6,2.9,0.6
		c2.2,0,3.5-1.3,4.2-4.9l4.3-21.8v-0.1c-1.4-0.2-3.3-0.5-5-0.6l1.3-7.1c5-0.5,10.3-0.7,16-0.5L208.3,94.3z M209.9,61.4
		c-3.7,0-6.1-2.8-6.1-5.9c0-3.9,3.4-6.7,7-6.7c3.6,0,6.1,2.8,6.1,5.8C216.9,58.6,213.5,61.4,209.9,61.4z"/>
	<path fill="#849938" d="M241.7,93.5c0,0-1.7,0.1-6.6,0.1c-1.3,0-2.5,0-3.8-0.1c0.5-2,0.9-3.7,1.7-5.7H233
		c-2.8,4.2-6.4,6.4-10.5,6.4c-4.9,0-7.5-3.2-7.5-9.7C215,73,221.6,63,234.7,63c3.9,0,8.2,0.2,12.4,1
		C243.4,83.2,241.7,93.5,241.7,93.5z M232.8,71.6c-4.1,0-6.7,6.4-6.7,10.9c0,1.6,0.2,2.3,1.1,2.3c2.3,0,6.4-6.7,7.4-11.7l0.2-1.3
		C234.2,71.7,233.6,71.6,232.8,71.6z"/>
</g>
<g>
	<path fill="#849938" d="M253.1,22.8C270.5,15.4,273,4.5,274.2,0c-2.9,4-9.3,6.4-13.5,7.4c-3.8,0.9-11.1,1.9-18.1,5.3
		c-6.9,3.3-9.7,9-11.8,13.4c-2.2,4.8-3.5,12.3-3.5,12.3C235.4,29,240.8,28.1,253.1,22.8z"/>
	<path fill="#849938" d="M245.2,30.5c-17.3,7.4-19.9,18.3-21.1,22.8c2.9-4,9.4-6.4,13.5-7.4c3.8-0.9,11.1-1.9,18.1-5.3
		c6.9-3.3,9.7-9,11.8-13.4C269.8,22.5,271,15,271,15C262.9,24.3,257.6,25.2,245.2,30.5z"/>
</g>
</svg>
