<?xml version="1.0" encoding="utf-8"?>
<!-- Generator: Adobe Illustrator 20.0.0, SVG Export Plug-In . SVG Version: 6.00 Build 0)  -->
<svg version="1.1" id="Layer_1" xmlns="http://www.w3.org/2000/svg" xmlns:xlink="http://www.w3.org/1999/xlink" x="0px" y="0px"
	 viewBox="0 0 480.9 80.7" style="enable-background:new 0 0 480.9 80.7;" xml:space="preserve">
<style type="text/css">
	.st0{fill:#00A24E;}
</style>
<g>
	<path d="M111.1,13.9h3c1.4,0,4.6,0,4.6-3.5c0-3.4-3.3-3.4-4.9-3.4h-2.7V13.9z M104,0.5h9.5c5.4,0,7.4,0.8,8.9,2.1
		c2.3,1.9,3.4,4.7,3.4,7.7s-1.2,6-3.1,7.6c-2,1.7-4,2.5-8.5,2.5h-3.2v9.1H104V0.5z"/>
	<path d="M143.1,23.6c5.2,0,7.8-4.8,7.8-8.5c0-3.8-2.5-8.6-7.9-8.6c-5.1,0-7.9,4.4-7.9,8.4C135.1,19.4,138.2,23.6,143.1,23.6 M143,0
		c8.9,0,15.3,7,15.3,15c0,8.1-6.3,15-15.3,15c-9.1,0-15.2-7.2-15.2-14.7c0-1.9,0.3-4.1,1.1-6.2C130.4,5.4,134.9,0,143,0"/>
	<path d="M168.6,15.1h2.6c4.3,0,4.9-2.7,4.9-4.1c0-2.6-1.9-3.9-4.8-3.9h-2.7V15.1z M161.5,0.5h9.2c5.1,0,7,0.6,8.9,2.1
		c2.4,1.9,3.6,4.9,3.6,7.9c0,3.3-1.7,8.2-7.2,9.1l7.9,9.9h-8.4l-6.7-9.3h-0.1v9.3h-7.1V0.5z"/>
</g>
<polygon points="190.8,0.5 196.6,20.9 196.7,20.9 202.6,0.5 210.2,0.5 200.5,29.5 192.9,29.5 183.2,0.5 "/>
<g>
	<path d="M225.1,23.6c5.2,0,7.8-4.8,7.8-8.5c0-3.8-2.5-8.6-7.9-8.6c-5.1,0-7.9,4.4-7.9,8.4C217.1,19.4,220.1,23.6,225.1,23.6 M225,0
		c8.9,0,15.3,7,15.3,15c0,8.1-6.3,15-15.3,15c-9.1,0-15.2-7.2-15.2-14.7c0-1.9,0.3-4.1,1.1-6.2C212.4,5.4,216.9,0,225,0"/>
	<path d="M257.4,23.6c5.2,0,7.8-4.8,7.8-8.5c0-3.8-2.5-8.6-7.9-8.6c-5.1,0-7.9,4.4-7.9,8.4C249.4,19.4,252.4,23.6,257.4,23.6
		 M257.3,0c8.9,0,15.3,7,15.3,15c0,8.1-6.3,15-15.3,15c-9.1,0-15.2-7.2-15.2-14.7c0-1.9,0.3-4.1,1.1-6.2C244.7,5.4,249.2,0,257.3,0"
		/>
</g>
<polygon points="275.8,0.5 282.2,0.5 293.4,18.7 293.4,18.7 293.1,0.5 300.2,0.5 300.2,29.5 293.8,29.5 282.8,11.9 282.7,11.9 
	282.9,29.5 275.8,29.5 "/>
<polygon points="316,0.5 332.1,0.5 332.1,7 323.1,7 323.1,11.5 331.8,11.5 331.8,18 323.1,18 323.1,23 332.1,23 332.1,29.5 
	316,29.5 "/>
<polygon points="336.3,0.5 342.7,0.5 353.9,18.7 353.9,18.7 353.6,0.5 360.7,0.5 360.7,29.5 354.3,29.5 343.2,11.9 343.2,11.9 
	343.4,29.5 336.3,29.5 "/>
<polygon points="365.3,0.5 381.4,0.5 381.4,7 372.4,7 372.4,11.5 381.2,11.5 381.2,18 372.4,18 372.4,23 381.4,23 381.4,29.5 
	365.3,29.5 "/>
<g>
	<path d="M392.7,15.1h2.6c4.3,0,4.9-2.7,4.9-4.1c0-2.6-1.9-3.9-4.8-3.9h-2.7V15.1z M385.6,0.5h9.2c5.1,0,7,0.6,8.9,2.1
		c2.4,1.9,3.6,4.9,3.6,7.9c0,3.3-1.7,8.2-7.2,9.1l7.9,9.9h-8.4l-6.7-9.3h-0.1v9.3h-7.1V0.5z"/>
	<path d="M439.6,13c0,0.5,0,0.9,0,1.5c0,9.7-7.4,15.5-15.5,15.5c-8.8,0-15.4-6.8-15.4-15.2c0-8.6,7-14.9,15.5-14.9
		c6.9,0,12.9,4.7,14.5,10.3h-8.3c-1.1-2-3.2-3.8-6.4-3.8c-3.6,0-7.9,2.7-7.9,8.4c0,6.1,4.3,8.7,7.9,8.7c3.7,0,6.1-1.8,6.9-4.7h-8.6
		V13H439.6z"/>
</g>
<rect x="442.8" y="0.5" width="7.4" height="28.9"/>
<path d="M466.4,9.5L466.4,9.5h0.1l3,9.9h-6.1L466.4,9.5z M463.6,0.5l-11.6,28.9h7.9l1.5-4.2h10.1l1.4,4.2h8L469.4,0.5H463.6z"/>
<g>
	<path d="M111.1,73.6h3.5c0.9,0,3.7,0,3.7-2.8c0-2.5-2.5-2.5-3.7-2.5h-3.5V73.6z M111.1,62.1h2.6c1,0,3.1,0,3.1-2.3
		c0-2.2-2-2.2-3.1-2.2h-2.6V62.1z M104,51.1h8.9c4.9,0,7.2,0.5,9.3,2.8c1.3,1.3,1.7,3.1,1.7,4.8c0,2.2-1,4.5-3.4,5.8
		c4.7,1.6,4.8,5.5,4.8,6.7c0,2.3-0.9,4.9-2.7,6.3c-2.7,2.2-4.6,2.5-9.5,2.5H104V51.1z"/>
	<path d="M143.1,74.2c5.2,0,7.8-4.8,7.8-8.5c0-3.8-2.5-8.6-7.9-8.6c-5.1,0-7.9,4.4-7.9,8.5C135.1,70,138.2,74.2,143.1,74.2
		 M143,50.6c8.9,0,15.3,7,15.3,15s-6.3,15-15.3,15c-9.1,0-15.2-7.2-15.2-14.7c0-1.9,0.3-4.1,1.1-6.2C130.4,56,134.9,50.6,143,50.6"
		/>
	<path d="M168.6,65.7h2.6c4.3,0,4.9-2.7,4.9-4.1c0-2.6-1.9-3.9-4.8-3.9h-2.7V65.7z M161.5,51.1h9.2c5.1,0,7,0.6,8.9,2.1
		c2.4,1.9,3.6,4.9,3.6,7.9c0,3.3-1.7,8.2-7.2,9.1l7.9,9.9h-8.4l-6.7-9.3h-0.1v9.3h-7.1V51.1z"/>
	<path d="M215.5,63.6c0,0.5,0,0.9,0,1.5c0,9.7-7.4,15.5-15.5,15.5c-8.8,0-15.4-6.8-15.4-15.2c0-8.6,7-14.9,15.5-14.9
		c6.9,0,12.9,4.7,14.5,10.3h-8.3c-1.1-2-3.2-3.8-6.4-3.8c-3.6,0-7.9,2.7-7.9,8.4c0,6.1,4.3,8.7,7.9,8.7c3.7,0,6.1-1.8,6.9-4.7h-8.6
		v-5.9H215.5z"/>
</g>
<path d="M229.2,60.1L229.2,60.1h0.1l3,9.9h-6.1L229.2,60.1z M226.3,51.1l-11.6,28.9h7.9l1.5-4.2h10.1l1.4,4.2h8l-11.5-28.9H226.3z"
	/>
<polygon points="257.1,51.1 257.1,80.1 273.2,80.1 273.2,73.6 264.2,73.6 264.2,68.6 272.9,68.6 272.9,62.1 264.2,62.1 264.2,57.6 
	273.2,57.6 273.2,51.1 "/>
<polygon points="294.7,51.1 295.1,69.3 295,69.3 283.8,51.1 277.4,51.1 277.4,80.1 284.5,80.1 284.3,62.5 284.4,62.5 295.4,80.1 
	301.8,80.1 301.8,51.1 "/>
<polygon points="306.5,51.1 306.5,80.1 322.5,80.1 322.5,73.6 313.5,73.6 313.5,68.6 322.3,68.6 322.3,62.1 313.5,62.1 313.5,57.6 
	322.5,57.6 322.5,51.1 "/>
<g>
	<path d="M333.8,65.7h2.6c4.3,0,4.9-2.7,4.9-4.1c0-2.6-1.9-3.9-4.8-3.9h-2.7V65.7z M326.7,51.1h9.2c5.1,0,7,0.6,8.9,2.1
		c2.4,1.9,3.6,4.9,3.6,7.9c0,3.3-1.7,8.2-7.2,9.1l7.9,9.9h-8.4l-6.7-9.3h-0.1v9.3h-7.1V51.1z"/>
	<path d="M380.7,63.6c0,0.5,0,0.9,0,1.5c0,9.7-7.4,15.5-15.5,15.5c-8.8,0-15.4-6.8-15.4-15.2c0-8.6,7-14.9,15.5-14.9
		c6.9,0,12.9,4.7,14.5,10.3h-8.3c-1.1-2-3.2-3.8-6.4-3.8c-3.6,0-7.9,2.7-7.9,8.4c0,6.1,4.3,8.7,7.9,8.7c3.7,0,6.1-1.8,6.9-4.7h-8.6
		v-5.9H380.7z"/>
</g>
<rect x="383.9" y="51.1" width="7.4" height="28.9"/>
<path class="st0" d="M35.1,0.6c14.7-0.2,22.3,21,13.7,33.1C44,40.3,36.2,41.2,26.2,41v39.2H0V0.6H35.1z"/>
<path class="st0" d="M48.4,0.7h14.4c16.9,0.4,20,26.5,5.9,32.9c20.1,5.8,17.9,44.9-4.8,46.5H45.1v-6.6c-3.9,0-12.5,0-12.5,0
	c0,0,0-10.7,0-10.7h12.2v-5.9H32.5V46.5c9.7,0,17.4-3.6,21.8-10.3C61.1,25.7,58.5,6.1,48.4,0.7"/>
<path d="M229.2,45.5c-0.9,0-1.7-0.7-1.7-1.7c0-0.9,0.7-1.8,1.7-1.8c1,0,1.7,0.8,1.7,1.7C230.9,44.8,230.1,45.5,229.2,45.5
	 M229.2,38.9c-2.7,0-4.9,2.2-4.9,4.9s2.2,4.9,4.9,4.9c2.7,0,4.9-2.2,4.9-4.9S231.9,38.9,229.2,38.9"/>
</svg>
